<svg width="31" height="30" viewBox="0 0 31 30" fill="none" xmlns="http://www.w3.org/2000/svg">
<path d="M17.4286 16.9286L21.2857 20.7857M14.5357 18.8571C13.257 18.8571 12.0306 18.3492 11.1264 17.445C10.2223 16.5408 9.71429 15.3144 9.71429 14.0357C9.71429 12.757 10.2223 11.5306 11.1264 10.6264C12.0306 9.72226 13.257 9.21429 14.5357 9.21429C15.8144 9.21429 17.0408 9.72226 17.945 10.6264C18.8492 11.5306 19.3571 12.757 19.3571 14.0357C19.3571 15.3144 18.8492 16.5408 17.945 17.445C17.0408 18.3492 15.8144 18.8571 14.5357 18.8571ZM15.5 28.5C13.7272 28.5 11.9717 28.1508 10.3338 27.4724C8.69588 26.7939 7.20765 25.7995 5.95406 24.5459C4.70047 23.2924 3.70607 21.8041 3.02763 20.1662C2.34919 18.5283 2 16.7728 2 15C2 13.2272 2.34919 11.4717 3.02763 9.83377C3.70607 8.19588 4.70047 6.70765 5.95406 5.45406C7.20765 4.20047 8.69588 3.20606 10.3338 2.52763C11.9717 1.84919 13.7272 1.5 15.5 1.5C19.0804 1.5 22.5142 2.92232 25.0459 5.45406C27.5777 7.9858 29 11.4196 29 15C29 18.5804 27.5777 22.0142 25.0459 24.5459C22.5142 27.0777 19.0804 28.5 15.5 28.5Z" stroke="#666666" stroke-width="3"/>
</svg>
