<?xml version="1.0" encoding="utf-8"?><svg viewBox="0 0 31 30" xmlns="http://www.w3.org/2000/svg" xmlns:xlink="http://www.w3.org/1999/xlink"><style>:root>svg{display:none}:root>svg:target{display:block}</style><svg viewBox="0 0 30 30" id="local" xmlns="http://www.w3.org/2000/svg"><path d="M15 27a12 12 0 110-24 12 12 0 010 24zm0-27a15 15 0 100 30 15 15 0 000-30zm0 15.75a2.25 2.25 0 110-4.5 2.25 2.25 0 010 4.5zm0-7.95c-3.15 0-5.7 2.55-5.7 5.7 0 4.5 5.7 9.75 5.7 9.75s5.7-5.25 5.7-9.75c0-3.15-2.55-5.7-5.7-5.7z"/></svg><svg viewBox="0 0 25 4" id="minus" xmlns="http://www.w3.org/2000/svg"><path d="M2.083 4C1.531 4 1.001 3.79.61 3.414A1.96 1.96 0 010 2C0 1.47.22.96.61.586 1 .21 1.53 0 2.083 0h20.834c.552 0 1.082.21 1.473.586C24.78.96 25 1.47 25 2c0 .53-.22 1.04-.61 1.414C24 3.79 23.47 4 22.917 4H2.083z"/></svg><svg viewBox="0 0 28 28" id="plus" xmlns="http://www.w3.org/2000/svg"><path d="M14.052 2l-.031 24M2 13.52h24"/></svg><svg viewBox="0 0 31 30" id="search" xmlns="http://www.w3.org/2000/svg"><path d="M17.429 16.929l3.857 3.857m-6.75-1.929a4.821 4.821 0 110-9.643 4.821 4.821 0 010 9.643zM15.5 28.5a13.5 13.5 0 110-27.002 13.5 13.5 0 010 27.002z"/></svg><svg viewBox="0 0 30 30" id="user" xmlns="http://www.w3.org/2000/svg"><path d="M15 0a15 15 0 100 30 15 15 0 000-30zM7.605 24.42c.645-1.35 4.575-2.67 7.395-2.67 2.82 0 6.75 1.32 7.395 2.67A11.84 11.84 0 0115 27c-2.79 0-5.355-.96-7.395-2.58zm16.935-2.175c-2.145-2.61-7.35-3.495-9.54-3.495-2.19 0-7.395.885-9.54 3.495A11.892 11.892 0 013 15C3 8.385 8.385 3 15 3s12 5.385 12 12c0 2.73-.93 5.25-2.46 7.245zM15 6c-2.91 0-5.25 2.34-5.25 5.25S12.09 16.5 15 16.5s5.25-2.34 5.25-5.25S17.91 6 15 6zm0 7.5A2.25 2.25 0 1115 9a2.25 2.25 0 010 4.5z"/></svg></svg>