<svg width="24" height="24" viewBox="0 0 24 24" fill="none" xmlns="http://www.w3.org/2000/svg">
<path d="M12.0015 2.66095e-07C12.2283 -0.000153238 12.4506 0.0661113 12.6433 0.191294C12.836 0.316476 12.9913 0.495577 13.0917 0.708326L16.1402 7.17307L22.9597 8.21014C23.184 8.24422 23.3947 8.34325 23.568 8.49604C23.7413 8.64884 23.8703 8.8493 23.9404 9.07477C24.0105 9.30024 24.0189 9.54173 23.9647 9.77194C23.9105 10.0021 23.7958 10.2119 23.6336 10.3775L18.6996 15.4103L19.8642 22.5139C19.902 22.7475 19.8767 22.9875 19.7912 23.2068C19.7056 23.4262 19.5633 23.6162 19.3801 23.7555C19.1969 23.8948 18.9803 23.9779 18.7544 23.9953C18.5286 24.0128 18.3026 23.9639 18.1018 23.8543L12.0015 20.4991L5.90123 23.8543C5.70067 23.9645 5.47467 24.0138 5.24874 23.9967C5.02281 23.9796 4.80596 23.8967 4.62266 23.7575C4.43936 23.6183 4.29693 23.4282 4.21144 23.2087C4.12594 22.9893 4.1008 22.7492 4.13885 22.5156L5.30513 15.4086L0.367865 10.3775C0.205179 10.212 0.0900617 10.0021 0.0355583 9.77163C-0.0189451 9.54117 -0.0106555 9.29935 0.0594877 9.07357C0.129631 8.84779 0.258823 8.64707 0.432425 8.49417C0.606027 8.34127 0.817097 8.24229 1.04172 8.20845L7.86123 7.17307L10.9114 0.708326C11.0118 0.495577 11.1671 0.316476 11.3598 0.191294C11.5524 0.0661113 11.7747 -0.000153238 12.0015 2.66095e-07ZM12.0015 4.1432L9.75806 8.89644C9.67094 9.08098 9.54228 9.24062 9.38314 9.36165C9.224 9.48267 9.03915 9.56145 8.84447 9.59121L3.82784 10.3538L7.45627 14.0547C7.59744 14.1985 7.70306 14.3761 7.76402 14.5721C7.82497 14.7681 7.83943 14.9767 7.80616 15.1799L6.95088 20.4059L11.4362 17.9386C11.6106 17.8427 11.8046 17.7926 12.0015 17.7926C12.1985 17.7926 12.3925 17.8427 12.5669 17.9386L17.0538 20.4059L16.1953 15.1799C16.162 14.9767 16.1765 14.7681 16.2374 14.5721C16.2984 14.3761 16.404 14.1985 16.5452 14.0547L20.1736 10.3555L15.1586 9.5929C14.9639 9.56314 14.7791 9.48436 14.6199 9.36334C14.4608 9.24232 14.3321 9.08267 14.245 8.89814L12.0015 4.1432Z" fill="#ED741A"/>
</svg>
